HIERARCHY
ROOT Hips
{
	OFFSET 0.000000 0.000000 0.000000
	CHANNELS 6 Xposition Yposition Zposition Yrotation Xrotation Zrotation
	JOINT Chest
	{
		OFFSET 0.000000 -0.009281 11.569106
		CHANNELS 3 Yrotation Xrotation Zrotation
		JOINT Chest2
		{
			OFFSET -0.000000 0.016865 9.269641
			CHANNELS 3 Yrotation Xrotation Zrotation
			JOINT Chest3
			{
				OFFSET -0.000000 0.000001 8.374491
				CHANNELS 3 Yrotation Xrotation Zrotation
				JOINT Chest4
				{
					OFFSET -0.000000 0.000001 8.374493
					CHANNELS 3 Yrotation Xrotation Zrotation
					JOINT Neck
					{
						OFFSET -0.000000 0.000002 12.152554
						CHANNELS 3 Yrotation Xrotation Zrotation
						JOINT Head
						{
							OFFSET -0.000000 0.040101 7.802319
							CHANNELS 3 Yrotation Xrotation Zrotation
							End Site
							{
								OFFSET -0.000000 0.020947 14.853096
							}
						}
					}
					JOINT RightCollar
					{
						OFFSET 2.894404 0.000001 6.791374
						CHANNELS 3 Yrotation Xrotation Zrotation
						JOINT RightShoulder
						{
							OFFSET 13.574684 0.000001 0.000000
							CHANNELS 3 Yrotation Xrotation Zrotation
							JOINT RightElbow
							{
								OFFSET 23.923903 0.000002 0.000000
								CHANNELS 3 Yrotation Xrotation Zrotation
								JOINT RightWrist
								{
									OFFSET 19.846718 0.012767 0.000000
									CHANNELS 3 Yrotation Xrotation Zrotation
									End Site
									{
										OFFSET 14.973145 0.000001 0.000000
									}
								}
							}
						}
					}
					JOINT LeftCollar
					{
						OFFSET -2.894404 0.000001 6.791374
						CHANNELS 3 Yrotation Xrotation Zrotation
						JOINT LeftShoulder
						{
							OFFSET -13.574684 -0.000001 0.000000
							CHANNELS 3 Yrotation Xrotation Zrotation
							JOINT LeftElbow
							{
								OFFSET -23.923903 -0.000002 0.000000
								CHANNELS 3 Yrotation Xrotation Zrotation
								JOINT LeftWrist
								{
									OFFSET -19.846718 0.012763 0.000000
									CHANNELS 3 Yrotation Xrotation Zrotation
									End Site
									{
										OFFSET -14.973145 -0.000001 0.000000
									}
								}
							}
						}
					}
				}
			}
		}
	}
	JOINT RightHip
	{
		OFFSET 9.469263 0.004643 0.045487
		CHANNELS 3 Yrotation Xrotation Zrotation
		JOINT RightKnee
		{
			OFFSET 0.000000 0.002661 -40.478676
			CHANNELS 3 Yrotation Xrotation Zrotation
			JOINT RightAnkle
			{
				OFFSET 0.000000 0.049106 -35.224068
				CHANNELS 3 Yrotation Xrotation Zrotation
				JOINT RightToe
				{
					OFFSET -0.000001 12.539529 -6.151390
					CHANNELS 3 Yrotation Xrotation Zrotation
					End Site
					{
						OFFSET -0.000001 5.044994 -1.291870
					}
				}
			}
		}
	}
	JOINT LeftHip
	{
		OFFSET -9.469263 0.004641 0.045487
		CHANNELS 3 Yrotation Xrotation Zrotation
		JOINT LeftKnee
		{
			OFFSET 0.000000 0.002661 -40.478676
			CHANNELS 3 Yrotation Xrotation Zrotation
			JOINT LeftAnkle
			{
				OFFSET 0.000000 0.049106 -35.224068
				CHANNELS 3 Yrotation Xrotation Zrotation
				JOINT LeftToe
				{
					OFFSET -0.000001 12.539529 -6.151390
					CHANNELS 3 Yrotation Xrotation Zrotation
					End Site
					{
						OFFSET -0.000001 5.044994 -1.291870
					}
				}
			}
		}
	}
}
MOTION
Frames: 8
Frame Time: 0.016667
10.327260 4.419319 82.943001 -8.671213 -4.178931 -113.548050 -0.688486 -4.856671 0.572484 -0.298922 -2.156193 0.244325 -0.298922 -2.156194 0.244324 -0.223303 -1.617265 0.182170 2.506037 -22.115900 1.557187 4.961340 -4.992032 3.509600 1.382839 -1.202190 -2.535144 76.710954 -23.237618 41.552552 -10.610865 -25.142729 56.041552 -43.815401 28.166843 61.721674 -10.653338 -1.270662 -10.338757 -73.299200 0.090813 -41.963122 -40.179978 30.288225 -34.690350 -11.773919 40.741788 -1.696780 -0.438705 -10.246899 -0.870535 0.831305 -5.626022 -1.660834 0.056987 6.142591 4.374457 -0.007130 -0.028365 -0.016709 -0.249916 -12.238737 0.953241 0.804279 -2.739131 4.405193 -0.460299 5.482898 -1.694842 -0.025316 -0.036633 0.014468 
10.304562 4.427129 82.943039 -8.681022 -4.193251 -113.585923 -0.662529 -4.861482 0.563187 -0.286886 -2.157958 0.240367 -0.286886 -2.157958 0.240366 -0.214290 -1.618582 0.179243 2.469420 -22.124181 1.557803 4.895052 -5.005592 3.500242 1.463041 -1.224450 -2.520673 76.922492 -22.780896 41.197874 -10.020308 -25.565519 55.999669 -44.000294 28.262756 61.613395 -10.670038 -1.295131 -10.332481 -73.337817 0.117253 -41.973073 -40.197675 30.296411 -34.699502 -11.773446 40.760715 -1.712825 -0.434522 -10.224241 -0.895091 0.829498 -5.657488 -1.596698 0.046990 6.136995 4.348712 -0.005042 -0.027122 -0.016229 -0.249769 -12.221946 0.981534 0.805604 -2.779557 4.381615 -0.444700 5.498733 -1.661360 -0.029816 -0.039735 0.014718 
10.287155 4.433459 82.943962 -8.691218 -4.207816 -113.632375 -0.628540 -4.875951 0.532670 -0.272120 -2.163918 0.227126 -0.272120 -2.163919 0.227124 -0.203261 -1.623040 0.169359 2.412184 -22.132635 1.587608 4.799581 -5.020001 3.537913 1.504649 -1.176235 -2.559109 76.770759 -22.555055 41.013548 -9.879291 -26.224971 56.040469 -43.885557 28.014519 61.494365 -10.668647 -1.298751 -10.314978 -73.330134 0.113870 -41.955366 -40.257309 30.332293 -34.758672 -11.756681 40.785816 -1.711958 -0.439539 -10.206950 -0.924082 0.829579 -5.685076 -1.518053 0.045172 6.131874 4.362852 -0.006292 -0.025775 -0.014787 -0.251795 -12.212893 1.010359 0.809036 -2.814454 4.370353 -0.431236 5.513685 -1.632243 -0.033876 -0.040124 0.014510 
10.275766 4.440919 82.945213 -8.703131 -4.216107 -113.687256 -0.609074 -4.885937 0.495252 -0.264633 -2.168288 0.211569 -0.264633 -2.168289 0.211565 -0.197700 -1.626308 0.157718 2.366105 -22.153708 1.631702 4.727737 -5.059145 3.603952 1.484566 -1.015742 -2.664791 76.430623 -22.713219 40.762265 -10.476119 -26.832827 56.309640 -43.484201 27.484625 61.450707 -10.640298 -1.295574 -10.298385 -73.288674 0.096003 -41.914470 -40.307634 30.362626 -34.827411 -11.726517 40.767538 -1.689248 -0.449294 -10.199402 -0.940249 0.827695 -5.696379 -1.448944 0.046321 6.123633 4.362604 -0.009630 -0.026655 -0.014227 -0.264936 -12.207768 1.016340 0.813451 -2.847099 4.388880 -0.418450 5.524914 -1.617511 -0.036351 -0.034936 0.014395 
10.266360 4.449823 82.946709 -8.725282 -4.223930 -113.741276 -0.605801 -4.892344 0.464226 -0.264095 -2.171659 0.199133 -0.264095 -2.171660 0.199131 -0.197340 -1.628832 0.148395 2.350406 -22.187615 1.673739 4.709704 -5.123501 3.674098 1.422494 -0.984307 -2.707889 76.048904 -23.026991 40.517249 -11.423772 -27.198645 56.690638 -43.126972 27.168734 61.589298 -10.619885 -1.278305 -10.275454 -73.243602 0.064564 -41.875309 -40.287072 30.368261 -34.847372 -11.688636 40.723797 -1.676366 -0.463939 -10.199553 -0.920130 0.818847 -5.711857 -1.415963 0.056497 6.118149 4.377838 -0.010589 -0.027058 -0.012631 -0.287231 -12.210846 0.987567 0.820451 -2.883316 4.433696 -0.408695 5.533180 -1.584209 -0.035300 -0.025851 0.012388 
10.255475 4.460862 82.948036 -8.757156 -4.231896 -113.791457 -0.622205 -4.911237 0.457592 -0.272504 -2.180885 0.196784 -0.272504 -2.180885 0.196782 -0.203651 -1.635753 0.146595 2.376903 -22.210001 1.691709 4.761653 -5.167350 3.712900 1.366906 -0.987041 -2.734373 75.892930 -23.257223 40.185066 -12.000891 -27.350509 56.895554 -43.011262 27.175456 61.705596 -10.601630 -1.239059 -10.265624 -73.223063 0.046008 -41.868889 -40.223507 30.352681 -34.818809 -11.645467 40.705100 -1.678692 -0.475511 -10.201045 -0.870827 0.806758 -5.740359 -1.421652 0.062945 6.118692 4.382877 -0.007574 -0.027159 -0.011891 -0.308845 -12.216099 0.954657 0.821543 -2.928347 4.487913 -0.402350 5.541880 -1.571119 -0.030920 -0.016413 0.011192 
10.239895 4.469935 82.947510 -8.789110 -4.241194 -113.833743 -0.641549 -4.932384 0.467446 -0.282167 -2.190330 0.201428 -0.282166 -2.190330 0.201427 -0.210876 -1.642840 0.150041 2.419235 -22.215761 1.690057 4.837426 -5.180113 3.721301 1.355703 -1.013392 -2.734753 76.051711 -23.202019 39.732167 -11.652918 -27.342265 56.740608 -43.065425 27.240179 61.624958 -10.596174 -1.213393 -10.257787 -73.245330 0.048542 -41.903002 -40.190565 30.342794 -34.792294 -11.616759 40.719781 -1.699494 -0.480121 -10.198943 -0.806429 0.790229 -5.774303 -1.443146 0.063758 6.123274 4.374676 0.000971 -0.029290 -0.010077 -0.323255 -12.218571 0.937751 0.816971 -2.974751 4.531348 -0.395718 5.554475 -1.560713 -0.026732 -0.013156 0.010032 
10.220574 4.480271 82.944908 -8.816973 -4.251596 -113.863700 -0.649546 -4.947211 0.479743 -0.285931 -2.196266 0.206361 -0.285931 -2.196266 0.206363 -0.213679 -1.647297 0.153724 2.449924 -22.205925 1.677992 4.889902 -5.162791 3.708382 1.375874 -1.018252 -2.745918 76.437583 -22.937833 39.168031 -10.737018 -27.250201 56.422478 -43.270983 27.368957 61.464107 -10.615854 -1.217488 -10.256285 -73.304322 0.089300 -41.948225 -40.199751 30.326965 -34.781902 -11.642999 40.760370 -1.742998 -0.483860 -10.184509 -0.764028 0.781973 -5.823963 -1.442534 0.053927 6.135275 4.373611 0.011250 -0.032324 -0.008558 -0.328906 -12.207274 0.940245 0.809660 -3.035411 4.556690 -0.388091 5.578832 -1.568379 -0.024962 -0.017305 0.007900 
